<?xml version="1.0"?>
<svg xmlns="http://www.w3.org/2000/svg" version="1.1" width="500px" height="500px" viewBox="0 0 200 200" style="overflow:hidden!important;">
  <defs id="SvgjsDefs7544">
    <radialGradient id="SvgjsRadialGradient7605" cx="100" cy="113" r="40" gradientUnits="userSpaceOnUse" class="svga-on-canvas-facehighlight-gradient-single-0">
      <stop id="SvgjsStop7606" stop-opacity="0.5" stop-color="#fff4f3" offset="0"/>
      <stop id="SvgjsStop7607" stop-opacity="0" stop-color="#f3d4cf" offset="0.9"/>
    </radialGradient>
    <radialGradient id="SvgjsRadialGradient7609" cx="100" cy="57" r="36" gradientUnits="userSpaceOnUse" class="svga-on-canvas-facehighlight-gradient-single-1">
      <stop id="SvgjsStop7610" stop-opacity="0.5" stop-color="#fff4f3" offset="0"/>
      <stop id="SvgjsStop7611" stop-opacity="0" stop-color="#f3d4cf" offset="0.9"/>
    </radialGradient>
    <radialGradient id="SvgjsRadialGradient7694" cx="-565.337" cy="-492.691" r="84.644" gradientTransform="matrix(0.0991 8.856325e-004 -0.0011 0.0991 130.3774 136.3533)" gradientUnits="userSpaceOnUse" class="svga-on-canvas-eyesiris-gradient-left-2">
      <stop id="SvgjsStop7695" stop-opacity="0.8" stop-color="#ffffff" offset="0"/>
      <stop id="SvgjsStop7696" stop-opacity="0" stop-color="#ffffff" offset="1"/>
    </radialGradient>
    <linearGradient id="SvgjsLinearGradient7700" x1="122.283" y1="93.047" x2="123.61" y2="91.466" gradientTransform="matrix(1 0 0 1 -52 0)" gradientUnits="userSpaceOnUse" class="svga-on-canvas-eyesiris-gradient-left-5">
      <stop id="SvgjsStop7701" stop-opacity="1" stop-color="#ffffff" offset="0"/>
      <stop id="SvgjsStop7702" stop-opacity="0" stop-color="#ffffff" offset="1"/>
    </linearGradient>
    <linearGradient id="SvgjsLinearGradient7704" x1="127" y1="85" x2="125" y2="87" gradientTransform="matrix(1 0 0 1 -50 0)" gradientUnits="userSpaceOnUse" class="svga-on-canvas-eyesiris-gradient-left-6">
      <stop id="SvgjsStop7705" stop-opacity="1" stop-color="#ffffff" offset="0"/>
      <stop id="SvgjsStop7706" stop-opacity="0" stop-color="#ffffff" offset="1"/>
    </linearGradient>
    <linearGradient id="SvgjsLinearGradient7708" x1="130" y1="81" x2="126" y2="85" gradientTransform="matrix(1 0 0 1 -50 0)" gradientUnits="userSpaceOnUse" class="svga-on-canvas-eyesiris-gradient-left-7">
      <stop id="SvgjsStop7709" stop-opacity="1" stop-color="#ffffff" offset="0"/>
      <stop id="SvgjsStop7710" stop-opacity="0" stop-color="#ffffff" offset="1"/>
    </linearGradient>
    <radialGradient id="SvgjsRadialGradient7717" cx="-584.778" cy="-487.329" r="84.644" gradientTransform="matrix(0.0991 8.856325e-004 -0.0011 0.0991 182.3104 135.839)" gradientUnits="userSpaceOnUse" class="svga-on-canvas-eyesiris-gradient-right-2">
      <stop id="SvgjsStop7718" stop-opacity="0.8" stop-color="#ffffff" offset="0"/>
      <stop id="SvgjsStop7719" stop-opacity="0" stop-color="#ffffff" offset="1"/>
    </radialGradient>
    <linearGradient id="SvgjsLinearGradient7723" x1="120.284" y1="93.047" x2="121.611" y2="91.467" gradientUnits="userSpaceOnUse" class="svga-on-canvas-eyesiris-gradient-right-5">
      <stop id="SvgjsStop7724" stop-opacity="1" stop-color="#ffffff" offset="0"/>
      <stop id="SvgjsStop7725" stop-opacity="0" stop-color="#ffffff" offset="1"/>
    </linearGradient>
    <linearGradient id="SvgjsLinearGradient7727" x1="127" y1="85" x2="125" y2="87" gradientUnits="userSpaceOnUse" class="svga-on-canvas-eyesiris-gradient-right-6">
      <stop id="SvgjsStop7728" stop-opacity="1" stop-color="#ffffff" offset="0"/>
      <stop id="SvgjsStop7729" stop-opacity="0" stop-color="#ffffff" offset="1"/>
    </linearGradient>
    <linearGradient id="SvgjsLinearGradient7731" x1="130" y1="81" x2="126" y2="85" gradientUnits="userSpaceOnUse" class="svga-on-canvas-eyesiris-gradient-right-7">
      <stop id="SvgjsStop7732" stop-opacity="1" stop-color="#ffffff" offset="0"/>
      <stop id="SvgjsStop7733" stop-opacity="0" stop-color="#ffffff" offset="1"/>
    </linearGradient>
    <radialGradient id="SvgjsRadialGradient7795" cx="126.391" cy="85.989" r="13.763" gradientTransform="matrix(-1.0172 0 0 1.0172 202.565 -1.469)" gradientUnits="userSpaceOnUse" class="svga-on-canvas-eyesback-gradient-left-0">
      <stop id="SvgjsStop7796" stop-opacity="1" stop-color="#ffffff" offset="0"/>
      <stop id="SvgjsStop7797" stop-opacity="1" stop-color="#fdfefe" offset="0.544"/>
      <stop id="SvgjsStop7798" stop-opacity="1" stop-color="#f6f8f9" offset="0.74"/>
      <stop id="SvgjsStop7799" stop-opacity="1" stop-color="#eaeff2" offset="0.879"/>
      <stop id="SvgjsStop7800" stop-opacity="1" stop-color="#d9e3e8" offset="0.992"/>
      <stop id="SvgjsStop7801" stop-opacity="1" stop-color="#d8e2e7" offset="1"/>
    </radialGradient>
    <radialGradient id="SvgjsRadialGradient7803" cx="126.391" cy="85.989" r="13.763" gradientTransform="matrix(1.0172 0 0 1.0172 -2.565 -1.469)" gradientUnits="userSpaceOnUse" class="svga-on-canvas-eyesback-gradient-right-0">
      <stop id="SvgjsStop7804" stop-opacity="1" stop-color="#ffffff" offset="0"/>
      <stop id="SvgjsStop7805" stop-opacity="1" stop-color="#fdfefe" offset="0.544"/>
      <stop id="SvgjsStop7806" stop-opacity="1" stop-color="#f6f8f9" offset="0.74"/>
      <stop id="SvgjsStop7807" stop-opacity="1" stop-color="#eaeff2" offset="0.879"/>
      <stop id="SvgjsStop7808" stop-opacity="1" stop-color="#d9e3e8" offset="0.992"/>
      <stop id="SvgjsStop7809" stop-opacity="1" stop-color="#d8e2e7" offset="1"/>
    </radialGradient>
    <radialGradient id="SvgjsRadialGradient7811" cx="126.391" cy="85.989" r="13.763" gradientTransform="matrix(-1.0172 0 0 1.0172 202.565 -1.469)" gradientUnits="userSpaceOnUse" class="svga-on-canvas-eyesfront-gradient-left-0">
      <stop id="SvgjsStop7812" stop-opacity="1" stop-color="#ffffff" offset="0"/>
      <stop id="SvgjsStop7813" stop-opacity="1" stop-color="#fdfefe" offset="0.544"/>
      <stop id="SvgjsStop7814" stop-opacity="1" stop-color="#f6f8f9" offset="0.74"/>
      <stop id="SvgjsStop7815" stop-opacity="1" stop-color="#eaeff2" offset="0.879"/>
      <stop id="SvgjsStop7816" stop-opacity="1" stop-color="#d9e3e8" offset="0.992"/>
      <stop id="SvgjsStop7817" stop-opacity="1" stop-color="#d8e2e7" offset="1"/>
    </radialGradient>
    <radialGradient id="SvgjsRadialGradient7821" cx="123.411" cy="85.41" fx="136.047" fy="85.446" r="17.971" gradientTransform="matrix(0.9998 0.0208 0.0166 -0.7998 -48.2173 151.1555)" gradientUnits="userSpaceOnUse" class="svga-on-canvas-eyesfront-gradient-left-3">
      <stop id="SvgjsStop7822" stop-opacity="1" stop-color="#e4b3ab" offset="0"/>
      <stop id="SvgjsStop7823" stop-opacity="0.3" stop-color="#e4b3ab" offset="0.7"/>
      <stop id="SvgjsStop7824" stop-opacity="0" stop-color="#f3d4cf" offset="1"/>
    </radialGradient>
    <radialGradient id="SvgjsRadialGradient7826" cx="78.542" cy="109.585" r="29.473" gradientTransform="matrix(0.9362 -0.0488 0.049 0.9315 -2.5399 10.6886)" gradientUnits="userSpaceOnUse" class="svga-on-canvas-eyesfront-gradient-left-4">
      <stop id="SvgjsStop7827" stop-opacity="0" stop-color="#000000" offset="0.95"/>
      <stop id="SvgjsStop7828" stop-opacity="0.3" stop-color="#000000" offset="1"/>
    </radialGradient>
    <radialGradient id="SvgjsRadialGradient7832" cx="126.391" cy="85.989" r="13.763" gradientTransform="matrix(1.0172 0 0 1.0172 -2.565 -1.469)" gradientUnits="userSpaceOnUse" class="svga-on-canvas-eyesfront-gradient-right-0">
      <stop id="SvgjsStop7833" stop-opacity="1" stop-color="#ffffff" offset="0"/>
      <stop id="SvgjsStop7834" stop-opacity="1" stop-color="#fdfefe" offset="0.544"/>
      <stop id="SvgjsStop7835" stop-opacity="1" stop-color="#f6f8f9" offset="0.74"/>
      <stop id="SvgjsStop7836" stop-opacity="1" stop-color="#eaeff2" offset="0.879"/>
      <stop id="SvgjsStop7837" stop-opacity="1" stop-color="#d9e3e8" offset="0.992"/>
      <stop id="SvgjsStop7838" stop-opacity="1" stop-color="#d8e2e7" offset="1"/>
    </radialGradient>
    <radialGradient id="SvgjsRadialGradient7842" cx="123.411" cy="85.41" fx="136.047" fy="85.446" r="17.971" gradientTransform="matrix(-0.9998 0.0208 -0.0166 -0.7998 248.2173 151.1555)" gradientUnits="userSpaceOnUse" class="svga-on-canvas-eyesfront-gradient-right-3">
      <stop id="SvgjsStop7843" stop-opacity="1" stop-color="#e4b3ab" offset="0"/>
      <stop id="SvgjsStop7844" stop-opacity="0.3" stop-color="#e4b3ab" offset="0.7"/>
      <stop id="SvgjsStop7845" stop-opacity="0" stop-color="#f3d4cf" offset="1"/>
    </radialGradient>
    <radialGradient id="SvgjsRadialGradient7847" cx="78.542" cy="109.585" r="29.473" gradientTransform="matrix(-0.9362 -0.0488 -0.049 0.9315 202.5399 10.6886)" gradientUnits="userSpaceOnUse" class="svga-on-canvas-eyesfront-gradient-right-4">
      <stop id="SvgjsStop7848" stop-opacity="0" stop-color="#000000" offset="0.95"/>
      <stop id="SvgjsStop7849" stop-opacity="0.3" stop-color="#000000" offset="1"/>
    </radialGradient>
    <linearGradient id="SvgjsLinearGradient7854" x1="130" y1="81" x2="126" y2="85" gradientTransform="matrix(1 0 0 1 -50 0)" gradientUnits="userSpaceOnUse" class="svga-on-canvas-eyesiris-gradient-left-1">
      <stop id="SvgjsStop7855" stop-opacity="1" stop-color="#ffffff" offset="0"/>
      <stop id="SvgjsStop7856" stop-opacity="0" stop-color="#ffffff" offset="1"/>
    </linearGradient>
    <linearGradient id="SvgjsLinearGradient7859" x1="130" y1="81" x2="126" y2="85" gradientUnits="userSpaceOnUse" class="svga-on-canvas-eyesiris-gradient-right-1">
      <stop id="SvgjsStop7860" stop-opacity="1" stop-color="#ffffff" offset="0"/>
      <stop id="SvgjsStop7861" stop-opacity="0" stop-color="#ffffff" offset="1"/>
    </linearGradient>
    <linearGradient id="SvgjsLinearGradient7865" x1="100" y1="141" x2="100" y2="138" gradientUnits="userSpaceOnUse" class="svga-on-canvas-mouth-gradient-single-0">
      <stop id="SvgjsStop7866" stop-opacity="1" stop-color="#ebc3bd" offset="0.1"/>
      <stop id="SvgjsStop7867" stop-opacity="1" stop-color="#e4b3ab" offset="1"/>
    </linearGradient>
    <linearGradient id="SvgjsLinearGradient7898" x1="99.98" y1="171.27" x2="99.98" y2="136.351" gradientUnits="userSpaceOnUse" class="svga-on-canvas-chinshadow-gradient-single-0">
      <stop id="SvgjsStop7899" stop-opacity="0.8" stop-color="#e4b3ab" offset="0"/>
      <stop id="SvgjsStop7900" stop-opacity="1" stop-color="#c5796d" offset="0.7"/>
    </linearGradient>
  </defs>
  <g id="svga-group-wrapper">
    <g id="svga-group-backs-single">
      <path id="SvgjsPath7758" d="M225 225H-25V-25h250V225z" fill="#f9f2e7" stroke-width="none" opacity="1" stroke="none"/>
      <path id="SvgjsPath7759" d="M0-5v210M10,205V-5 M20,205V-5 M30,205V-5 M40,205V-5 M50,205V-5 M60,205V-5 M70,205V-5 M80,205V-5 M90,205V-5 M100,205V-5 M110,205V-5M120,205V-5 M130,205V-5 M140,205V-5 M150,205V-5 M160,205V-5 M170,205V-5 M180,205V-5 M190,205V-5 M200,205V-5" fill="none" stroke="#eadac1" stroke-width="5" opacity="1"/>
    </g>
    <g id="svga-group-humanwrap-move" transform="matrix(1,0,0,1,0,0)">
      <g id="svga-group-humanwrap" transform="matrix(1,0,0,1,0,0)">
        <g id="svga-group-hair-back-move" transform="matrix(1,0,0,1,0,0)">
          <g id="svga-group-hair-back" transform="matrix(1,0,0,1,0,0)">
            <path id="SvgjsPath7771" d="M100.5,100.5h-1v-1h1V100.5z" fill="#2a232b" stroke-width="none" opacity="1" stroke="none"/>
          </g>
        </g>
        <g id="svga-group-humanbody-single">
          <path id="SvgjsPath7612" d="M190.858 199.866c-6.008-10.158-13.474-11.973-19.628-13.936 -6.323-2.016-19.346-3.178-26.449-4.6 -6.86-1.373-23.153-5.789-23.339-13.488 -0.192-8.066 4.291-40.09 4.291-40.09H74.005c0 0 4.487 32.023 4.294 40.09 -0.184 7.699-16.48 12.115-23.341 13.488 -7.104 1.422-20.125 2.584-26.448 4.6 -6.156 1.963-13.624 3.777-19.632 13.936 -3.644 6.16-6.008 16.133-6.008 27.133h194C196.869 215.999 194.509 206.026 190.858 199.866z" fill="#f3d4cf" stroke-width="none" opacity="1" stroke="none"/>
          <path id="SvgjsPath7613" d="M121.442 167.843c2.495 10.929 18.165 13.698 26.293 15.325 21.909 4.379 33.772 5.134 42.297 19.539 2.903 4.916 5.459 15.864 5.962 24.153 1.835 0.291 0.531-17.432-5.136-26.994 -9.742-16.472-29.089-15.135-46.077-18.535C137.921 179.958 121.628 175.542 121.442 167.843L121.442 167.843zM78.558 167.843c-0.186 7.699-16.479 12.115-23.339 13.488 -16.988 3.4-36.335 2.063-46.077 18.535 -5.667 9.563-6.971 27.285-5.136 26.994 0.503-8.289 3.059-19.237 5.962-24.153 8.524-14.405 20.388-15.16 42.297-19.539C60.393 181.541 76.063 178.771 78.558 167.843L78.558 167.843z" fill="#fff4f3" stroke-width="none" opacity="1" stroke="none"/>
          <path id="SvgjsPath7614" d="M51.206 189.513c0 0 28.641 0.299 33.473 1.885 2.314 0.758 8.372 5.633 8.372 5.633s-6.556-3.17-8.658-3.758C79.51 191.909 51.206 189.513 51.206 189.513zM99.795 199.999c2.053-0.041 7.887-3.799 7.887-3.799s-5.574 2.059-7.342 2.16c-1.491 0.086-6.366-1.238-6.366-1.238S98.112 200.032 99.795 199.999zM117.008 192.757c6.75-1.818 29.786-3.23 29.786-3.23s-23.791-0.516-30.51 1.725c-2.252 0.752-7.562 5.16-7.562 5.16S114.786 193.354 117.008 192.757z" fill="#e4b3ab" stroke-width="none" opacity="1" stroke="none"/>
          <path id="SvgjsPath7615" d="M190.858 199.866c-9.741-16.471-29.122-15.142-46.077-18.535 -6.86-1.373-23.153-5.789-23.339-13.488 -0.192-8.066 4.291-40.09 4.291-40.09H74.005c0 0 4.487 32.023 4.294 40.09 -0.184 7.699-16.48 12.115-23.341 13.488 -7.104 1.422-20.125 2.584-26.448 4.6 -6.156 1.963-13.624 3.777-19.632 13.936 -3.644 6.16-6.008 16.133-6.008 27.133h194C196.869 215.999 194.509 206.026 190.858 199.866z" fill="none" stroke="#c5796d" stroke-width="1.5" opacity="1"/>
        </g>
        <g id="svga-group-chinshadow-single">
          <path id="SvgjsPath7897" d="M100.002 171.27c11.208 0 16.588-3.813 20.938-7.778 0.582-8.897 2.669-24.918 3.646-32.155 -14.784-1.753-34.708-1.742-49.43 0.032 0.971 7.183 3.024 22.934 3.628 31.864C83.185 167.29 88.551 171.27 100.002 171.27z" fill="url(#SvgjsLinearGradient7898)" opacity="1"/>
        </g>
        <g id="svga-group-clothes-single">
          <path id="SvgjsPath7880" d="M145.471 178.022c-1.061 15.897 0.707 33.905 0.707 33.905 -7.768-3.362-22.639-15.503-26.666-16.49 -4.061 2.169-6.393 2.106-7.4 2.359 -5.947 0.997-13.61 2.537-20.636-1.041 -1.868 0.035-3.905 0.708-5.905 2.207 -12.993 9.737-21.868 10.612-28.634 15.292 1.635-27.44-0.969-27.127-1.584-36.505 -1.19-0.449-1.364-0.623-1.995-1.753 -10.244 3.183-30.212 6.022-40.19 15.947 -8.894 8.844-11.768 22.784-10.309 35.422 54.74-0.592 138.876-1.306 193.888-0.761C197.551 186.068 175.945 185.906 145.471 178.022z" fill="#ce005b" stroke-width="none" opacity="1" stroke="none"/>
          <path id="SvgjsPath7881" d="M119.089 197.568c-2.052-0.513-3.667-0.068-5.207-0.069 1.284-0.237 3.127-0.725 5.63-2.062 3.544 0.869 18.16 11.9 26.269 16.461C136.602 209.54 127.018 200 119.089 197.568zM94.757 198.053c-1.103-0.329-2.201-0.746-3.282-1.297 -1.868 0.035-3.905 0.708-5.905 2.207 -10.305 7.723-21.76 12.23-27.887 15.123C88.137 205.707 83.056 198.188 94.757 198.053z" fill="#bf0054" stroke-width="none" opacity="1" stroke="none"/>
          <path id="SvgjsPath7882" d="M53.455 176.17C24.339 183.745-1.083 196.935 3 227.364c-0.047 0.001-0.096 0.002-0.143 0.002 -0.554-4.797-0.479-9.78 0.308-14.603 1.287-7.883 4.483-15.332 10.001-20.819 9.978-9.925 29.946-12.765 40.19-15.947C53.392 176.062 53.422 176.111 53.455 176.17zM145.471 178.022c-0.009 0.125-0.016 0.251-0.023 0.376 23.922 8.212 47.547 10.712 50.868 48.203 0.142 0.001 0.29 0.003 0.431 0.004C197.551 186.068 179.202 186.402 145.471 178.022z" fill="#dd166e" stroke-width="none" opacity="1" stroke="none"/>
          <path id="SvgjsPath7883" d="M197.279 226.896c0 0-28.002 0.37-46.59 0.479 -12.59 0.08-25.181 0.15-37.771 0.2 -81.177 0.293-83.75-0.07-110.65-0.07 0 0-0.465-2.604-0.57-5.159 -1.659-40.352 30.275-40.577 51.729-46.788 0.274-0.079 0.565 0.04 0.704 0.29 0.333 0.6 0.916 1.025 1.106 1.12 0.01 0.33 0.03 0.65 0.05 0.979 -0.794-0.299-0.91-0.445-1.815-1.385 -0.084-0.087-0.178-0.162-0.292-0.121 -1.901 0.687-4.172 0.994-6.172 1.624 4.455 6.695 4.095 7.949 10.01 14.95 0.008 0.088 0.07 1.313 0.08 1.83 -5.761-5.881-7.017-9.274-11.08-16.48 -16.972 5.388-33.363 6.301-40.88 27.08 -2.474 6.846-2.944 14.967-2.15 21.98 59.171-0.638 134.022-1.259 193.7-0.761 0.3-14.363-3.066-30.22-15.511-37.189 -4.957-2.779-9.965-3.909-28.04-9 -1.481 3.65-5.049 8.293-7.789 11.17 -0.021-0.59-0.04-1.19-0.051-1.78 1.498-1.947 5.708-7.463 6.71-9.71 -2.14-0.6-4.27-1.21-6.399-1.84 0-0.28 0-0.55 0-0.82 7.963 1.854 28.813 6.277 35.64 9.931C195.5 195.033 199.143 211.619 197.279 226.896zM119.6 195.686c-0.221-0.09-0.44-0.15-0.66-0.181 -2.352 0.574-3.164 1.221-7.11 2 -3.127 0.617-10.333 1.927-17.07 0.211 0.036 0.098 0 0 0 0 -1.023-0.566-2.024-0.729-3.24-0.7C99.242 201.4 113.793 198.262 119.6 195.686zM130.699 202.775c-0.271-0.19-0.53-0.38-0.79-0.58 -17.37 8.853-32.546 8.652-50.1 4.74 -1.11-0.29-2.21-0.61-3.3-0.95 -0.34 0.18-0.69 0.36-1.05 0.52C93.449 213.814 114.174 212.888 130.699 202.775z" fill="#a00047" stroke-width="none" opacity="1" stroke="none"/>
          <path id="SvgjsPath7884" d="M56.979 214.415c1.692-28.206-2.607-30.744-1.55-42.351 3.373-1.974 6.717-2.578 8.406-4.544 8.052-9.419 7.112-13.441 12.346-15.903 1.041 4.357 1.672 14.578 1.678 14.713 3.949 11.71 6.64 16.713 9.878 21.422 1.879 2.727 5.893 6.911 6.854 9.761 -1.93-0.97-5.274-0.973-8.979 1.61 -6.009 4.147-3.838 5.138-16.357 9.679C64.814 210.398 60.982 212.567 56.979 214.415zM145.199 189.736c-0.004-0.288 0.321-14.813 0.357-16.021 -6.442-2.361-13.296-20.229-22.095-21.438 -2.597 16.247 0.486 10.404-7.249 30.08 -1.912 4.86-2.634 6.697-2.988 14.756 0.197-0.053 0.541-0.146 0.557-0.146l0 0c2.67-0.704 3.561-1.123 5.178-1.56 0.83 0.169 2.208 0.877 2.463 1.081l-0.006-0.011c7.472 3.991 14.442 11.187 24.802 15.61C146.427 208.185 145.199 198.497 145.199 189.736z" fill="#ffffff" stroke-width="none" opacity="1"/>
          <path id="SvgjsPath7885" d="M114.866 196.669c-0.33 0.094-0.683 0.191-1.085 0.298 -0.016 0-0.359 0.093-0.557 0.146 0.354-8.059 1.076-9.896 2.988-14.756 7.735-19.676 4.652-13.833 7.249-30.08 1.764 0.242 3.448 1.283 5.068 2.799 -1.115 8.624-3.485 15.436-6.941 23.212 4.048-2.29 8.441-5.093 12.411-7.287C125.745 178.43 117.495 185.863 114.866 196.669zM94.591 197.513c-0.961-2.85-4.976-7.034-6.854-9.761 -3.238-4.709-5.929-9.712-9.878-21.422 -0.006-0.135-0.638-10.355-1.678-14.713 -3.31 1.557-3.032 2.683-5.24 6.458 1.777 9.193 5.37 15.037 10.465 22.681C77.063 177.893 71 173 65 170c10.107 7.58 17.375 17.29 24.197 27.335C91.411 196.658 93.313 196.87 94.591 197.513z" fill="#dedbd4" stroke-width="none" opacity="1"/>
          <path id="SvgjsPath7886" d="M87.819 187.695c-4.936-7.178-7.181-13.699-9.86-21.37 0 0-0.438-10.561-1.51-14.85 -5.393 2.474-4.59 5.505-12.69 14.979 -2.291 2.666-5.4 3.784-8.43 5.601 -0.777 8.533 1.619 15.055 1.77 22.79 0.218 5.698 0.193 12.783-0.23 19.729 4.04-1.853 7.922-4.063 12.42-5.68 12.532-4.546 10.38-5.548 16.38-9.69 3.873-2.699 7.279-2.524 9.09-1.489C93.939 194.836 89.754 190.504 87.819 187.695zM74.019 205.915c-7.949 3.13-5.769 1.673-16.68 7.931 3.049-21.622-1.58-31.625-1.58-41.37 3.139-1.624 6.156-2.509 8.47-5.16 8.667-9.967 6.861-12.405 11.66-15.34 0.3 2.859 0.54 5.74 0.69 8.63 0.512 10.227-0.853 3.241 3.17 13.78 5.946 15.57 11.621 17.19 14.31 22.569C86.424 193.63 80.99 203.591 74.019 205.915zM145.299 189.735c-0.005-0.397 0.353-16.004 0.36-16.09 -6.451-2.231-13.624-20.399-22.579-21.48 -0.757 4.655-1.651 14.73-1.651 14.73 -6.107 20.451-7.73 16.906-8.31 30.35 0.003 0 0.646-0.179 0.688-0.182 2.547-0.672 3.516-1.094 5.133-1.559 0.254 0.052 0.671 0.179 0.92 0.29 0.032 0.016 1.544 0.762 1.51 0.771 7.519 4.019 14.47 11.234 24.94 15.67C146.558 208.415 145.299 198.592 145.299 189.735zM139.089 207.216c-7.011-4.202-11.864-9.296-19.3-12.33 -2.013-0.85-4.606 0.879-6.38 2.18 0.979-8.548 0.644-6.609 2.46-11.521 8.37-22.729 6.028-9.863 7.99-32.89 7.676 2.56 14.698 19.021 20.99 21.05 -2.021 23.913 0.69 32.396 1.01 37.82C143.52 210.266 141.359 208.575 139.089 207.216z" fill="#afa9a0" stroke-width="none" opacity="1"/>
        </g>
        <g id="svga-group-head" transform="matrix(1,0,0,1,0,0)">
          <g id="svga-group-ears-left-move" transform="matrix(1,0,0,1,0,0)" style="display: none;">
            <g id="svga-group-ears-left" transform="matrix(1,0,0,1,0,0)">
              <path id="SvgjsPath7875" d="M47.69 82.611c-1.588-2.324-8.025-7.659-11.703-6.839 -4.355 0.971-5.708 4.275-5.603 6.332 0.606 11.758 4.426 11.749 6.71 16.271 1.709 3.383 3.126 4.933 4.172 11.692 0.598 3.866 4.427 6.83 7.217 6.684 3.908-0.205 6.994-3.634 8.291-7.014C59.463 102.718 51.823 88.658 47.69 82.611z" fill="#f3d4cf" stroke="#c5796d" stroke-width="1.5" opacity="1"/>
              <path id="SvgjsPath7876" d="M43.274 99.484c-0.15-0.542-0.062-1.474 0.024-2.376 0.077-0.821 1.438-3.801 1.348-4.341 -0.344-2.022-1.931-5.809-2.949-7.853 -1.169-2.35-3.604-5.289-5.79-5.943 -0.904-0.271-3.479 0.039-3.781 0.625 -1.131 2.191-0.615 4.313 1.1 9.984 0.85 2.809 3.915 6.069 3.998 6.395 1.067 4.247 5.099 11.032 6.488 12.554 0.256 0.281 0.519 0.442 0.579 0.367 0.059-0.075-0.104-0.359-0.361-0.642 -1.372-1.513-5.367-8.282-6.396-12.38 -1.092-4.347 2.313-11.094 2.93-12.516 0.379 0.627 0.703 1.233 0.954 1.738 0.198 0.397 0.417 0.861 0.645 1.364 -0.367 0.744-4.245 6.226-3.026 10.371 0.451 1.528 2.054 4.491 3.432 6.049 0.483 0.546 0.893 0.702 1.19 1.207 0.341 0.586 0.732 1.251 1.792 1.687 0.215 0.089 0.408 0.118 0.577 0.108 0.293-0.019 0.51-0.157 0.667-0.318 0.029 0.265 0.044 0.604 0.051 0.919 0.007 0.404 0.073 0.735 0.162 0.738s0.168-0.325 0.161-0.729c-0.009-0.497-0.04-1.113-0.132-1.403 -0.273-0.854-1.028-1.791-1.829-2.781C44.319 101.332 43.505 100.323 43.274 99.484zM36.96 93.913c-2.347-6.628-1.518-13.365-1.103-14.318 1.345 0 3.778 2.439 4.397 3.42C39.874 83.854 36.837 89.368 36.96 93.913zM45.559 105.428c-0.961-0.395-1.303-0.979-1.635-1.545 -0.299-0.513-1.018-1-1.346-1.348 -0.191-0.204-0.531-0.75-0.715-0.872 -1.762-7.438 1.345-10.152 1.967-10.722 0.231 0.712 0.411 1.368 0.5 1.896 0.082 0.485-1.28 3.474-1.352 4.231 -0.089 0.939-0.182 1.911-0.012 2.526 0.253 0.917 1.093 1.955 1.904 2.96 0.72 0.892 1.459 1.811 1.732 2.581C46.509 105.299 46.204 105.692 45.559 105.428z" fill="#c5796d" stroke-width="none" opacity="1" stroke="none"/>
            </g>
          </g>
          <g id="svga-group-ears-right-move" transform="matrix(1,0,0,1,0,0)" style="display: none;">
            <g id="svga-group-ears-right" transform="matrix(1,0,0,1,0,0)">
              <path id="SvgjsPath7877" d="M152.049 82.611c1.588-2.324 8.025-7.659 11.701-6.839 4.357 0.971 5.709 4.275 5.604 6.332 -0.605 11.758-4.426 11.749-6.709 16.271 -1.711 3.383-3.127 4.933-4.174 11.692 -0.598 3.866-4.428 6.83-7.217 6.684 -3.908-0.205-6.994-3.634-8.291-7.014C140.275 102.718 147.916 88.658 152.049 82.611z" fill="#f3d4cf" stroke="#c5796d" stroke-width="1.5" opacity="1"/>
              <path id="SvgjsPath7878" d="M154.633 102.307c-0.801 0.99-1.557 1.928-1.83 2.781 -0.092 0.29-0.123 0.906-0.131 1.403 -0.008 0.404 0.072 0.732 0.16 0.729 0.09-0.003 0.154-0.334 0.162-0.738 0.008-0.315 0.021-0.654 0.051-0.919 0.156 0.161 0.373 0.3 0.666 0.318 0.17 0.01 0.361-0.02 0.578-0.108 1.061-0.436 1.449-1.101 1.791-1.687 0.297-0.505 0.709-0.66 1.191-1.207 1.377-1.559 2.98-4.521 3.432-6.049 1.219-4.145-2.66-9.627-3.027-10.371 0.229-0.503 0.447-0.967 0.645-1.364 0.252-0.505 0.576-1.111 0.955-1.738 0.617 1.421 4.021 8.168 2.93 12.516 -1.029 4.098-5.025 10.868-6.396 12.38 -0.256 0.282-0.42 0.566-0.361 0.642 0.061 0.075 0.322-0.086 0.578-0.367 1.391-1.521 5.422-8.307 6.49-12.554 0.082-0.326 3.146-3.586 3.996-6.395 1.715-5.671 2.232-7.793 1.102-9.984 -0.303-0.586-2.877-0.896-3.783-0.625 -2.186 0.655-4.619 3.594-5.789 5.943 -1.018 2.044-2.605 5.831-2.949 7.853 -0.09 0.54 1.271 3.52 1.348 4.341 0.086 0.902 0.176 1.834 0.025 2.376C156.232 100.323 155.42 101.332 154.633 102.307zM159.484 83.016c0.619-0.981 3.053-3.42 4.396-3.42 0.416 0.953 1.244 7.689-1.104 14.318C162.902 89.368 159.863 83.854 159.484 83.016zM153.137 105.137c0.273-0.771 1.012-1.689 1.732-2.581 0.811-1.005 1.65-2.044 1.904-2.96 0.168-0.616 0.076-1.587-0.014-2.526 -0.07-0.758-1.434-3.746-1.352-4.231 0.09-0.528 0.27-1.184 0.5-1.896 0.623 0.569 3.729 3.284 1.967 10.722 -0.184 0.122-0.523 0.668-0.715 0.872 -0.328 0.348-1.047 0.834-1.346 1.348 -0.332 0.565-0.674 1.15-1.635 1.545C153.533 105.692 153.23 105.299 153.137 105.137z" fill="#c5796d" stroke-width="none" opacity="1" stroke="none"/>
            </g>
          </g>
          <g id="svga-group-faceshape-wrap" transform="matrix(1,0,0,1,0,0)">
            <g id="svga-group-faceshape-single">
              <path id="SvgjsPath7894" d="M100.002 0.867C66.384 0.919 39.082 28.09 39.134 61.564c0.008 5.316 0.704 10.471 2.002 15.382h0.001C41.15 77 52.68 114.915 55.158 127.369c1.382 6.945 9.796 13.203 17.265 18.313 6.967 4.767 10.529 13.588 27.58 13.588s20.613-8.821 27.58-13.588c7.468-5.109 15.883-11.367 17.265-18.313 2.479-12.454 14.009-50.37 14.02-50.423h0.002c1.298-4.911 1.994-10.066 2.002-15.382C160.923 28.09 133.62 0.919 100.002 0.867z" fill="#f3d4cf" stroke-width="none" opacity="1" stroke="none"/>
              <path id="SvgjsPath7895" d="M146.772 22.738c7.478 10.183 11.917 22.87 11.898 36.626 -0.009 5.316-0.679 10.471-1.93 15.382h-0.002c-0.011 0.053-11.124 37.969-13.512 50.423 -1.335 6.945-9.471 13.203-16.668 18.313 -6.718 4.767-10.121 13.588-26.557 13.588 -16.434 0-19.842-8.821-26.557-13.588 -7.197-5.109-15.335-11.367-16.665-18.313 -2.391-12.454-13.504-50.37-13.515-50.423h0c-1.252-4.911-1.922-10.066-1.931-15.382 -0.021-13.752 4.416-26.435 11.889-36.617 -8.812 10.525-14.112 24.056-14.089 38.817 0.008 5.316 0.704 10.471 2.002 15.382h0.001C41.15 77 52.68 114.915 55.158 127.369c1.382 6.945 9.796 13.203 17.265 18.313 6.967 4.767 10.529 13.588 27.58 13.588s20.613-8.821 27.58-13.588c7.468-5.109 15.883-11.367 17.265-18.313 2.479-12.454 14.009-50.37 14.02-50.423h0.002c1.298-4.911 1.994-10.066 2.002-15.382C160.894 46.799 155.589 33.264 146.772 22.738z" fill="#ebc3bd" stroke-width="none" opacity="1" stroke="none"/>
              <path id="SvgjsPath7896" d="M100.002 0.867C66.384 0.919 39.082 28.09 39.134 61.564c0.008 5.316 0.704 10.471 2.002 15.382h0.001C41.15 77 52.68 114.915 55.158 127.369c1.382 6.945 9.796 13.203 17.265 18.313 6.967 4.767 10.529 13.588 27.58 13.588s20.613-8.821 27.58-13.588c7.468-5.109 15.883-11.367 17.265-18.313 2.479-12.454 14.009-50.37 14.02-50.423h0.002c1.298-4.911 1.994-10.066 2.002-15.382C160.923 28.09 133.62 0.919 100.002 0.867z" fill="none" stroke="#c5796d" stroke-width="1.5" opacity="1"/>
            </g>
          </g>
          <g id="svga-group-mouth-single-move" transform="matrix(1,0,0,1,0,0)">
            <g id="svga-group-mouth-single" transform="matrix(1,0,0,1,0,0)">
              <path id="SvgjsPath7864" d="M100.265 141c-4.159 0-5.134-2.933-5.134-2.933h10.267C105.398 138.067 103.921 141 100.265 141z" fill="url(#SvgjsLinearGradient7865)" opacity="1"/>
              <path id="SvgjsPath7868" d="M88.258 134.097c0 0 4.603-5.661 8.708-6.204 1.921-0.255 2.372 0.383 3.255 0.401 0.947 0.02 2.183-0.688 3.243-0.512 5.138 0.863 8.576 6.096 8.576 6.096s-2.504 4.826-11.979 4.877C91.374 138.801 88.258 134.097 88.258 134.097z" fill="#a96a47" stroke="#9a5731" stroke-width="0.75" opacity="1"/>
              <path id="SvgjsPath7869" d="M93.455 133.561c0.305-0.683 4.348-2.153 6.857-2.144 2.659 0.01 6.751 1.303 6.926 2.186C103.556 133.219 96.293 133.276 93.455 133.561z" fill="#ffffff" stroke-width="none" opacity="1"/>
              <path id="SvgjsPath7870" d="M100.265 137.338c-2.843 0-6.313-0.501-8.776-1.9 5.391-0.718 11.769-0.718 17.166-0.128C106.057 136.901 103.302 137.347 100.265 137.338zM100.535 130.596c3.076 0 5.859 0.649 8.378 1.396 -1.303-1.173-2.216-2.313-3.927-2.883 -0.77-0.255-1.221-0.276-1.992-0.1 -0.779 0.179-2.038 0.31-2.647 0.267 -1.574-0.115-2.394-0.575-3.579-0.343 -1.972 0.388-2.863 1.706-4.312 2.942C95.274 131.109 97.505 130.596 100.535 130.596z" fill="#b87f60" stroke-width="none" opacity="1" stroke="none"/>
              <path id="SvgjsPath7871" d="M95.147 135.668c1.932-0.387 8.792-0.387 10.237-0.083C102.806 136.685 98.927 137.336 95.147 135.668z" fill="#c8977c" stroke-width="none" opacity="1" stroke="none"/>
              <path id="SvgjsPath7872" d="M111.896 133.7c-1.516-0.143-3.065-0.241-4.612-0.307 -0.758-0.987-4.608-2.141-6.994-2.148 -2.101 0-5.425 1.123-6.599 1.927 -0.207 0.113-0.383 0.237-0.493 0.358 -2.902 0.155-4.782 0.329-4.83 0.333 -0.206 0.021-0.355 0.188-0.334 0.375 0.02 0.175 0.183 0.085 0.373 0.085 0.013 0 0.026-0.001 0.04-0.001 0.125-0.01 12.29-1.08 23.372-0.163 0.203 0.017 0.391 0.101 0.413-0.087C112.252 133.885 112.102 133.718 111.896 133.7zM100.124 133.242c-2.068 0-4.048 0.042-5.502 0.13l0.063-0.354c1.379-0.629 3.819-1.429 5.627-1.429 1.805 0.006 4.174 0.675 5.57 1.284l0.093 0.527C104.389 133.292 102.341 133.242 100.124 133.242z" fill="#7b350f" stroke-width="none" opacity="1" stroke="none"/>
            </g>
          </g>
          <g id="svga-group-eyes-left-move" transform="matrix(1,0,0,1,0,0)">
            <g id="svga-group-eyes-left" transform="matrix(1,0,0,1,0,0)">
              <g id="svga-group-eyesback-left">
                <path id="SvgjsPath7794" d="M80.854 79.416c2.436 1.371 4.469 3.053 6.65 5.942 0.047 0.184 0.088 0.364 0.1 0.534 0.218 3.267-1.324 6.223-3.851 8.345 -2.66 1.242-9.155 4.42-18.706-0.284 -1.653-1.546-2.925-3.497-3.748-5.672 0.075 0.106 0.168 0.208 0.236 0.317 -0.439-0.952-0.988-2.855-0.988-4.983C69.383 80.367 73.652 78.675 80.854 79.416z" fill="url(#SvgjsRadialGradient7795)" opacity="1"/>
              </g>
              <g id="svga-group-eyesiriswrapper-left" transform="matrix(1,0,0,1,0,0.5)">
                <g id="svga-group-eyesiriscontrol-left" transform="matrix(1,0,0,1,0,0)">
                  <g id="svga-group-eyesiris-left" transform="matrix(1,0,0,1,0,0)">
                    <path id="SvgjsPath7852" d="M83.199 89.25c-1.231 4.522-5.896 7.187-10.429 5.944 -4.528-1.241-7.203-5.918-5.97-10.442 1.23-4.526 5.905-7.19 10.434-5.947C81.761 80.045 84.433 84.723 83.199 89.25z" fill="#ddb332" stroke="#af8400" stroke-width="0.75" opacity="1"/>
                    <path id="SvgjsPath7853" d="M81.682 85.121c-0.806 1.237-2.884 1.31-4.641 0.166 -1.756-1.145-2.527-3.075-1.722-4.311 0.806-1.235 2.884-1.31 4.641-0.166C81.715 81.956 82.485 83.887 81.682 85.121L81.682 85.121z" fill="url(#SvgjsLinearGradient7854)" opacity="0.5"/>
                  </g>
                </g>
              </g>
              <g id="svga-group-eyesfront-left">
                <path id="SvgjsPath7819" d="M56 88c0 13.808 8.06 24.999 18 24.999S92 101.808 92 88c0-13.809-8.06-25.001-18-25.001S56 74.191 56 88zM61.299 88.281c0.075 0.106 0.168 0.208 0.236 0.317 -0.439-0.952-0.988-2.855-0.988-4.983 8.836-3.248 13.105-4.939 20.307-4.199 2.436 1.371 4.469 3.053 6.65 5.942 0.047 0.184 0.088 0.364 0.1 0.534 0.218 3.267-1.324 6.223-3.851 8.345 -2.66 1.242-9.155 4.42-18.706-0.284C63.394 92.407 62.122 90.456 61.299 88.281z" fill="#f3d4cf" stroke-width="none" opacity="1" stroke="none"/>
                <path id="SvgjsPath7820" d="M59.401 85.081c0.024 8.284 7.916 14.961 17.639 14.918 9.72-0.048 17.583-6.796 17.559-15.08 -0.024-8.286-7.918-14.964-17.641-14.92C67.236 70.047 59.377 76.795 59.401 85.081zM61.299 88.281c0.075 0.106 0.168 0.208 0.236 0.317 -0.439-0.952-0.988-2.855-0.988-4.983 8.836-3.248 13.105-4.939 20.307-4.199 2.436 1.371 4.469 3.053 6.65 5.942 0.047 0.184 0.088 0.364 0.1 0.534 0.218 3.267-1.324 6.223-3.851 8.345 -2.66 1.242-9.155 4.42-18.706-0.284C63.394 92.407 62.122 90.456 61.299 88.281z" fill="url(#SvgjsRadialGradient7821)" opacity="1"/>
                <path id="SvgjsPath7825" d="M65.047 93.953c-1.653-1.546-2.925-3.497-3.748-5.672 0.075 0.106 0.168 0.208 0.236 0.317 -0.439-0.952-0.988-2.855-0.988-4.983 8.836-3.248 13.105-4.939 20.307-4.199 2.436 1.371 4.469 3.053 6.65 5.942 0.047 0.184 0.088 0.364 0.1 0.534 0.218 3.267-1.324 6.223-3.851 8.345C81.093 95.479 74.598 98.657 65.047 93.953z" fill="url(#SvgjsRadialGradient7826)" opacity="1"/>
                <path id="SvgjsPath7829" d="M66.338 77.989c3.414-1.34 14.297-4.254 19.581-1.339C78.348 74.293 70.782 76.817 66.338 77.989z" fill="#c5796d" stroke-width="none" opacity="1" stroke="none"/>
                <path id="SvgjsPath7830" d="M84.036 93.981c-2.524 1.13-9.385 4.81-19.647-0.458C69.603 98.517 79.131 98.235 84.036 93.981zM83.049 78.924c2.323 1.77 3.414 3.542 4.665 6.75 -2.263-3.004-4.346-4.705-6.86-6.092 -7.201-0.726-11.471 0.933-20.307 4.116 0 2.086 0.549 3.952 0.988 4.885 -1.601-2.492-5.104-4.364-10.209-6.147 2.632 0.313 6.078 0.089 7.684-0.439 -0.786-0.515-1.213-1.037-1.646-1.701 2.461 0.715 4.014 0.617 6.586-0.055 -1.376-0.106-2.349-0.687-3.622-1.701 0 0 4.934 0.549 6.586 0.549 2.305 0 4.83-1.976 15.313-1.701 1.563 0.041 6.146 1.152 6.146 1.152L83.049 78.924z" fill="#1b1929" stroke-width="none" opacity="1" stroke="none"/>
              </g>
            </g>
          </g>
          <g id="svga-group-eyes-right-move" transform="matrix(1,0,0,1,0,0)">
            <g id="svga-group-eyes-right" transform="matrix(1,0,0,1,0,0)">
              <g id="svga-group-eyesback-right">
                <path id="SvgjsPath7802" d="M119.146 79.416c-2.436 1.371-4.469 3.053-6.65 5.942 -0.047 0.184-0.088 0.364-0.1 0.534 -0.218 3.267 1.324 6.223 3.851 8.345 2.66 1.242 9.155 4.42 18.706-0.284 1.653-1.546 2.925-3.497 3.748-5.672 -0.075 0.106-0.168 0.208-0.236 0.317 0.439-0.952 0.988-2.855 0.988-4.983C130.617 80.367 126.348 78.675 119.146 79.416z" fill="url(#SvgjsRadialGradient7803)" opacity="1"/>
              </g>
              <g id="svga-group-eyesiriswrapper-right" transform="matrix(1,0,0,1,0,0.5)">
                <g id="svga-group-eyesiriscontrol-right" transform="matrix(1,0,0,1,0,0)">
                  <g id="svga-group-eyesiris-right" transform="matrix(1,0,0,1,0,0)">
                    <path id="SvgjsPath7857" d="M133.199 89.25c-1.231 4.522-5.896 7.187-10.429 5.944 -4.528-1.241-7.203-5.918-5.97-10.442 1.23-4.526 5.905-7.19 10.434-5.947C131.761 80.045 134.433 84.723 133.199 89.25z" fill="#ddb332" stroke="#af8400" stroke-width="0.75" opacity="1"/>
                    <path id="SvgjsPath7858" d="M131.682 85.121c-0.806 1.237-2.884 1.31-4.641 0.166 -1.756-1.145-2.527-3.075-1.722-4.311 0.806-1.235 2.884-1.31 4.641-0.166C131.715 81.956 132.485 83.887 131.682 85.121L131.682 85.121z" fill="url(#SvgjsLinearGradient7859)" opacity="0.5"/>
                  </g>
                </g>
              </g>
              <g id="svga-group-eyesfront-right">
                <path id="SvgjsPath7840" d="M126 62.999c-9.94 0-18 11.193-18 25.001 0 13.808 8.06 24.999 18 24.999S144 101.808 144 88C144 74.191 135.94 62.999 126 62.999zM134.953 93.953c-9.551 4.704-16.046 1.526-18.706 0.284 -2.526-2.122-4.068-5.078-3.851-8.345 0.012-0.17 0.053-0.351 0.1-0.534 2.182-2.889 4.215-4.572 6.65-5.942 7.201-0.74 11.471 0.952 20.307 4.199 0 2.128-0.549 4.031-0.988 4.983 0.068-0.109 0.161-0.211 0.236-0.317C137.878 90.456 136.606 92.407 134.953 93.953z" fill="#f3d4cf" stroke-width="none" opacity="1" stroke="none"/>
                <path id="SvgjsPath7841" d="M123.042 69.999c-9.723-0.044-17.616 6.635-17.641 14.92 -0.024 8.284 7.839 15.032 17.559 15.08 9.723 0.042 17.614-6.635 17.639-14.918C140.623 76.795 132.764 70.047 123.042 69.999zM134.953 93.953c-9.551 4.704-16.046 1.526-18.706 0.284 -2.526-2.122-4.068-5.078-3.851-8.345 0.012-0.17 0.053-0.351 0.1-0.534 2.182-2.889 4.215-4.572 6.65-5.942 7.201-0.74 11.471 0.952 20.307 4.199 0 2.128-0.549 4.031-0.988 4.983 0.068-0.109 0.161-0.211 0.236-0.317C137.878 90.456 136.606 92.407 134.953 93.953z" fill="url(#SvgjsRadialGradient7842)" opacity="1"/>
                <path id="SvgjsPath7846" d="M134.953 93.953c1.653-1.546 2.925-3.497 3.748-5.672 -0.075 0.106-0.168 0.208-0.236 0.317 0.439-0.952 0.988-2.855 0.988-4.983 -8.836-3.248-13.105-4.939-20.307-4.199 -2.436 1.371-4.469 3.053-6.65 5.942 -0.047 0.184-0.088 0.364-0.1 0.534 -0.218 3.267 1.324 6.223 3.851 8.345C118.907 95.479 125.402 98.657 134.953 93.953z" fill="url(#SvgjsRadialGradient7847)" opacity="1"/>
                <path id="SvgjsPath7850" d="M114.081 76.65c5.284-2.915 16.167-0.001 19.581 1.339C129.218 76.817 121.652 74.293 114.081 76.65z" fill="#c5796d" stroke-width="none" opacity="1" stroke="none"/>
                <path id="SvgjsPath7851" d="M135.611 93.522c-10.263 5.269-17.123 1.588-19.647 0.458C120.869 98.235 130.397 98.517 135.611 93.522zM111.628 78.54c0 0 4.584-1.111 6.146-1.152 10.482-0.274 13.008 1.701 15.313 1.701 1.652 0 6.586-0.549 6.586-0.549 -1.273 1.015-2.246 1.595-3.622 1.701 2.572 0.672 4.125 0.77 6.586 0.055 -0.434 0.665-0.86 1.186-1.646 1.701 1.605 0.528 5.052 0.751 7.684 0.439 -5.105 1.783-8.608 3.655-10.209 6.147 0.439-0.933 0.988-2.799 0.988-4.885 -8.836-3.183-13.105-4.842-20.307-4.116 -2.515 1.387-4.598 3.088-6.86 6.092 1.251-3.208 2.342-4.98 4.665-6.75L111.628 78.54z" fill="#1b1929" stroke-width="none" opacity="1" stroke="none"/>
              </g>
            </g>
          </g>
          <g id="svga-group-facehighlight-single">
            <path id="SvgjsPath7604" d="M140.204 113.007c0.035 22.275-17.995 40.365-40.273 40.396 -22.274 0.036-40.361-17.993-40.396-40.272C59.501 90.857 77.53 72.77 99.808 72.735 122.083 72.701 140.171 90.73 140.204 113.007z" fill="url(#SvgjsRadialGradient7605)" opacity="1"/>
            <path id="SvgjsPath7608" d="M135,55.999c0,19.329-15.671,35-35,35c-19.329,0-35-15.671-35-35s15.671-35,35-35C119.329,20.999,135,36.67,135,55.999z" fill="url(#SvgjsRadialGradient7609)" opacity="1"/>
          </g>
          <g id="svga-group-eyebrows-left-move" transform="matrix(1,0,0,1,0,0)">
            <g id="svga-group-eyebrows-left-rotate" transform="matrix(1,0,0,1,0,0)">
              <g id="svga-group-eyebrows-left" transform="matrix(1,0,0,1,0,0)">
                <path id="SvgjsPath7862" d="M59.396 69.48c16.138-1.701 18.92 1.72 27.556 5.214 0.474 0.186 1.583 0.391 1.88-0.098 0.787-1.312-3.254-3.205-4.65-3.819C75.041 66.529 69.36 66.685 59.396 69.48z" fill="#2a232b" stroke-width="none" opacity="1" stroke="none"/>
              </g>
            </g>
          </g>
          <g id="svga-group-eyebrows-right-move" transform="matrix(1,0,0,1,0,0)">
            <g id="svga-group-eyebrows-right-rotate" transform="matrix(1,0,0,1,0,0)">
              <g id="svga-group-eyebrows-right" transform="matrix(1,0,0,1,0,0)">
                <path id="SvgjsPath7863" d="M140.604 69.48c-5.06-0.533-9.441-1.2-17.854 1.08 -4.62 1.032-10.657 5.557-11.581 4.036 -1.089-1.815 11.254-8.648 22.768-6.707C137.227 68.468 136.765 68.403 140.604 69.48z" fill="#2a232b" stroke-width="none" opacity="1" stroke="none"/>
              </g>
            </g>
          </g>
          <g id="svga-group-nose-single-move" transform="matrix(1,0,0,1,0,0)">
            <g id="svga-group-nose-single" transform="matrix(1,0,0,1,0,0)">
              <path id="SvgjsPath7873" d="M99.044 91.436c0 0-0.827 19.066-0.713 23.254 0.032 1.188 2.32 4.304 2.164 6.575 0 0-4.462-0.325-5.914-0.838 -1.519-0.538-3.869-1.588-2.94-4.521C92.964 111.735 99.044 91.436 99.044 91.436z" fill="#e4b3ab" stroke-width="none" opacity="1" stroke="none"/>
              <path id="SvgjsPath7874" d="M98.627 119.026c0 0-1.851-0.657-3.02-0.624 -1.064 0.033-1.218-0.676-1.11-1.079 0.108-0.403 0.473-0.654 1.501-0.38C97.027 117.219 98.627 119.026 98.627 119.026zM101.382 119.028c0 0 1.847-0.609 3.02-0.622 1.064-0.013 1.219-0.677 1.11-1.079 -0.108-0.404-0.473-0.657-1.501-0.383C102.982 117.222 101.382 119.028 101.382 119.028z" fill="#c5796d" stroke-width="none" opacity="1" stroke="none"/>
            </g>
          </g>
          <g id="svga-group-hair-front" transform="matrix(1,0,0,1,0,0)">
            <path id="SvgjsPath7773" d="M135.453 136.583c4.073-9.43 7.262-21.972 9.477-37.279 0.067-0.451 0.117-0.808 0.156-1.061 0.992-6.489 0.009-15.862-4.491-21.104l-0.209-0.244 1.063-0.289c-0.539 0.124-1.096 0.247-1.669 0.366 -3.895 0.812-7.551 1.224-10.876 1.224 -8.797 0-15.616-2.829-20.263-8.409 -2.884-3.464-4.68-11.368-6.582-19.735 -2.544-11.194-5.175-22.769-10.662-26.053 -1.272-0.758-2.77-1.193-4.105-1.193 -1.154 0-2.151 0.307-2.96 0.912C80.825 26.344 81.281 34 82.011 37.903c-6.661-4.193-11.245-3.647-14.132-1.808 -5.428 3.459-8.168 11.845-9.025 21.554 -0.647 7.344-1.381 15.668-4.235 23.526 -3.619 9.945 0.764 1.836 0.764 1.836l0.112 0.573c2.247 11.564 3.201 20.767 2.542 28.887 -0.72 8.862-0.989 15.863 2.911 22.094l0.237 0.378 -0.427-0.071c-7.892-1.313-24.733-9.192-26.417-25.176l-0.051-0.488 0.363 0.313c0.315 0.271 2.397 1.733 4.077 2.905 -8.249-8.001-12.972-15.939-12.972-30.242l0.361-0.091c0.516 1.047 1.169 2.106 1.751 2.979 -3.586-8.104-3.808-18.838-2.478-23.624l0.124-0.445 0.225 0.399c0.955 1.693 2.194 3.886 3.725 5.646 -6.986-11.897-4.496-23.937 0.998-30.318l0.298-0.345 0.036 0.463c0.138 1.79 0.315 4.052 1.052 5.933 -1.572-6.165-0.748-20.448 12.067-29.989l0.496-0.37 -0.206 0.6c-0.432 1.264-0.861 2.679-0.954 3.958 3.524-8.109 9.525-11.792 17.405-14.465l0.453-0.153 -0.225 0.438c-0.544 1.061-1.988 3.876-1.5 5.569 0.003-0.282 0.051-0.613 0.159-1.001C60.68 3.291 67.8-4.195 76.029-4.195h0.348l-0.186 0.308c-0.233 0.382-0.436 0.783-0.606 1.2 2.336-3.445 6.864-5.813 11.42-5.813 2.583 0 4.913 0.759 6.735 2.196l0.227 0.179 -0.244 0.152c-1.506 0.943-2.912 2.001-4.195 3.053 5.901-3.859 10.306-6.315 16.26-6.315 3.459 0 7.326 0.824 12.176 2.592 14.423 5.252 24.526 7.891 28.151 20.928 -0.557-1.779-1.009-1.875-2.27-4.387l-0.214-0.425 0.44 0.142c16.21 5.222 16.52 13.536 16.745 21.066 0.017 0.563 0.033 1.115 0.056 1.651 0.056-0.743 0.12-1.481 0.187-2.209 0.125-1.394 0.255-2.836 0.29-4.253l0.01-0.353 0.285 0.189c2.37 1.573 10.314 12.614 12.4 25.004 1.406 8.331 0.191 12.962-0.979 17.442 -0.246 0.938-0.496 1.892-0.723 2.884 0.282-0.947 0.574-1.869 0.88-2.777l0.147-0.44 0.203 0.416c8.769 17.928 1.639 25.74-4.09 32.018 -0.592 0.648-1.17 1.282-1.713 1.907 1.346-1.315 2.674-2.543 3.867-3.634l0.306-0.279 0.013 0.424c0.222 7.91-5.008 11.922-9.624 15.462 -2.078 1.594-4.063 3.116-5.325 4.851 1.519-1.341 3.349-2.649 5.654-4.049l0.402-0.242 -0.12 0.466c-1.854 7.306-9.894 11.861-23.215 19.408 -1.289 0.729-4.51 2.563-4.51 2.563L135.453 136.583z" fill="#2a232b" stroke-width="none" opacity="1" stroke="none"/>
            <path id="SvgjsPath7774" d="M140.595 77.138c-18.193 3.675-29.7 1.541-36.476-13.193 -3.777-30.062-8.219-39.376-16.828-41.14C113.185 25.574 94.168 79.888 140.595 77.138zM140.595 77.138c9.312 14.194-0.924 49.657-5.376 59.989C149.215 110.903 159.604 81.384 140.595 77.138zM76 34c-11-4-17 6-19 15 -2.18 13.077-0.38 31.068-17 52 12.198-10.494 16.776-14.285 20.089-43.505 1.098-9.685 2.362-17.94 7.79-21.399 2.514-1.602 6.315-2.22 11.652 0.414C78.539 34.84 76.646 34 76 34zM58.505 111.733c0.612-7.55 0.017-16.946-3.195-28.105 -0.783 18.777-8.53 30.985 4.649 49.982 0.188 0.073 0.375 0.147 0.563 0.219C57.105 127.782 57.814 120.249 58.505 111.733z" fill="#1b141c" stroke-width="none" opacity="1" stroke="none"/>
            <path id="SvgjsPath7775" d="M145.324 58.292c-0.047-0.001-0.045 0 0.128 0.007 -22.872-0.234-30.695-9.824-34.782-22.714 -7.638-24.12-29.693-24.206-33.143-8.625 3.043-18.274 28.903-14.735 35.651 7.876C118.056 51.152 130.186 57.602 145.324 58.292zM143.106 16.533C126.913-8.439 75.532 3.522 73.752 23.993 74.334 1.445 126.233-11.253 143.106 16.533zM76.913 31.942c-1.056-1.893-4.586-6.564-11.645-4.432C35.254 36.578 47.72 78.588 31.98 95.961c11.476-14.691 0.321-59.338 32.529-69.053C69.394 25.434 74.831 27.185 76.913 31.942zM76.915 22.284c2.541-10.911 16.292-16.115 26.676-14.975 12.555 1.378 15.997 14.619 21.2 20.917 8.055 9.752 17.439 10.502 27.63 8.976 -1.863 0.279-14.891 5.226-27.305-5.945 -9.141-8.23-8.852-18.521-21.154-22.038C97.229 7.295 80.559 10.274 76.915 22.284zM155.196 90.875c0.313-0.373 0.79-0.663 1.149-0.99 12.229-11.132 8.885-32.389 1.794-37.559C164.268 58.415 166.035 77.955 155.196 90.875zM161.098 100.625c-3.946 4.501-9.933 12.873-9.688 13.873 -0.295-1.215 9.346-10.466 10.222-11.625 4.784-6.33 7-12.439 4.996-18.441C167.539 90.212 167.093 93.787 161.098 100.625zM55.378 16.227c-14.68 3.301-12.107 23.189-12.345 24.189 0.238-1 0.325-20.632 15.298-22.799 -0.077 0.004-0.098 0.004-0.064 0.002 5.048-0.217 11 0.109 14.91 3.705C69.087 16.51 59.341 15.335 55.378 16.227zM74.958 2.319c1.366-1.797 3.992-4.456 7.554-4.432 -3.028-0.017-6.302-0.051-9.26 3.725 -1.752 2.238-3.791 8.079-2.474 10.984C70.391 9.074 73.379 4.396 74.958 2.319zM63.869 45.645c2.527-12.586 9.961-12.044 17.205-8.103C73.12 37.329 66.293 41.478 63.869 45.645zM82.033 37.471c-1.833-16.426 8.435-20.688 14.353-3.372C91.807 33.275 85.371 34.062 82.033 37.471z" fill="#0c080c" stroke-width="none" opacity="1" stroke="none"/>
            <path id="SvgjsPath7776" d="M43.245 88.393c6.21-11.865 3.609-32.352 9.748-41.739C47.896 60.12 49.558 74.716 43.245 88.393zM54.231 129.125c-7.173-7.228-10.447-16.268-9.544-26.425C41.055 113.881 45.882 121.858 54.231 129.125zM32.207 47.33c-4.514 7.856-1.646 12.65 2.774 20.101C31.552 62.645 28.107 52.807 32.207 47.33zM33.572 85.294c-2.736-3.85-5.306-8.574-5.276-13.561C29.902 76.546 28.766 81.792 33.572 85.294zM40.7 47.569c-3.393-8.802-1.508-19.53 2.261-27.923C36.927 28.282 35.782 38.328 40.7 47.569zM117.56-4.839C99.84-6.906 83.557-4.017 73.519 13.085 83.277-0.626 101.23-6.846 117.56-4.839zM150.921 28.691c-19.725-0.53-23.47-23.613-42.557-23.028C127.391 6.139 129.372 29.359 150.921 28.691zM162.892 88.441c5.6-15.989 10.484-30.128 0.417-46.175C171.733 58.934 168.165 71.989 162.892 88.441zM154.505 115.547c-3.428 7.385-8.313 9.885-13.778 15.539C147.598 128.183 152.767 122.906 154.505 115.547zM155.112 46.88c-14.333 0.554-27.096-3.42-35.116-15.573C126.915 45.62 140.449 48.376 155.112 46.88z" fill="#3a353a" stroke-width="none" opacity="1" stroke="none"/>
            <path id="SvgjsPath7777" d="M179.475 82.804c0.005 0.018 0.006-0.012-0.001-0.142 -0.01-0.068-0.017-0.106-0.021-0.127 -0.681-4.582-1.776-8.134-4.785-13.389 -0.303-0.525-1.071-1.37-0.882-1.951 0.822-2.485 4.435-11.733 0.758-23.114 -1.646-5.076-8.407-16.142-12.744-18.91 -1.355-11.878-6.353-13.801-18.127-16.226 0.169 0.294 0.332 0.596 0.49 0.904 19.536 6.37 15.576 18.102 16.786 25.495 -0.024-3.157 0.515-6.309 0.599-9.465 2.242 1.489 10.189 12.306 12.307 24.868 2.062 12.204-1.492 16.26-2.392 24.204 0.567-2.246 1.199-4.433 1.944-6.627 10.874 22.246-2.971 28.891-7.729 36.23 1.949-2.05 3.989-3.97 6.084-5.875 0.35 12.208-12.526 15.039-15.665 21.416 1.974-1.952 4.282-3.552 6.666-4.99 -2.01 7.926-11.433 12.604-27.135 21.559 6.678-15.453 9.153-35.195 9.645-38.389 0.893-5.856 0.302-15.627-4.534-21.273 2.936-0.798 5.926-1.575 8.768-2.664 -2.385 0-27.827 10.785-40.72-4.686 -6.831-8.199-7.54-39.99-17.292-45.823 -2.11-1.262-5.17-1.845-7.277-0.27 -3.157 2.361-3.334 8.466-2.694 12.726 0.001 0.607 0.064 1.201 0.064 1.201s-1-0.656-1.38-0.875c-3.825-2.035-8.559-3.158-12.427-0.689 -9.606 6.133-6.676 26.843-13.343 45.18 -6.091 16.753-12.381 14.397-17.286 23.911 6-9.295 11.27-6.831 18.158-21.384 4.75 24.441-1.98 39.14 5.477 51.048 -6.8-1.127-24.501-8.387-26.255-24.997 0.54 0.46 6.15 4.352 6.284 4.437 -9.746-8.919-14.863-16.825-14.863-31.927 1.233 2.52 3.216 5.03 3.216 5.03 0.018-0.088-0.264-0.461-0.304-0.537 -4.259-8.017-4.749-19.923-3.287-25.177 1.336 2.372 2.909 5.096 4.982 6.932 -8.201-12.494-5.386-25.259 0.048-31.57 0.206 2.59 0.475 6.017 2.29 8.082 -2.109-3.291-3.982-20.742 11.13-31.998 -0.505 1.474-1.096 3.403-0.961 4.984C46.744 8.83 53.23 5.248 60.722 2.7c-0.82 1.595-2.976 5.865-0.408 6.993C56.953 8.215 65.631-3.999 76.033-3.999c-0.544 0.896-0.917 1.88-1.123 2.906 2.922-6.477 12.93-9.608 18.715-5.051 -2.37 1.478-4.53 3.266-6.61 5.114 12.854-8.234 21.979-8.207 34.624-3.891 7.605 2.596 17.111 5.483 24.73 19.78C144.19 3.939 130.166-4.423 122.695-6.942c-20.28-6.846-28.51 0.08-28.51 0.08 -6.209-7.016-14.417-2.535-17.698 2.159C61.433-5.065 62.594 1.579 60.955 1.884c-14.59 2.726-14.66 8.385-17.02 9.676 -10.961 6.003-13.735 13.668-13.402 24.191 -12.438 12.35-5.392 23.111-5.887 24.23 -5.069 11.436 0.464 18.845 0.238 20.38 -3.08 20.905 8.766 27.064 8.769 28.864 0.045 22.594 23.879 26.713 28.836 26.308 -7.255-14.38 1.09-23.773-6.729-52.88 4.149-9.398 6.389-21.289 7.314-30.863 1.03-10.639 14.588-14.209 18.938-13.887 4.391-3.255 8.96-3.179 14.78-2.578 3.275 10.267 4.844 23.685 5.561 26.507 4.188 16.459 20.678 19.766 37.427 15.424 1.043-0.269 5.199 6.586 4.059 17.601 -0.146 1.409-5.579 32.572-9.609 43.643 9.359-4.462 26.288-9.968 29.666-24.11 6.988-4.789 10.256-7.462 8.856-16.221C172.75 98.169 179.908 92.106 179.475 82.804z" fill="#000000" stroke-width="none" opacity="1" stroke="none"/>
          </g>
          <g id="svga-group-glasses-single-move" transform="matrix(1,0,0,1,0,0)">
            <g id="svga-group-glasses-single" transform="matrix(1,0,0,1,0,0)">
              <path id="SvgjsPath7736" d="M100,18.13L100,18.13L100,18.13L100,18.13z" fill="#26120b" stroke-width="none" opacity="1"/>
            </g>
          </g>
        </g>
      </g>
    </g>
    <rect id="SvgjsRect7589" width="200" height="15" x="0" y="185" fill="#ecf0f1" opacity="0.5" style="display: none;"/>
    <text id="SvgjsText7590" font-family="Roboto, Helvetica, Arial, sans-serif" font-size="10px" text-anchor="start" font-weight="400" anchor="start" fill="#333333" x="38.76297378540039" y="182.42838287353516" style="display: none;">
      <tspan id="SvgjsTspan7591" dy="13" x="38.76297378540039">Created on svgAvatars.com</tspan>
    </text>
  </g>
</svg>
